<?xml version="1.0" encoding="utf-8"?>
<!-- Generator: Adobe Illustrator 27.3.1, SVG Export Plug-In . SVG Version: 6.00 Build 0)  -->
<svg version="1.1" id="レイヤー_1" xmlns="http://www.w3.org/2000/svg" xmlns:xlink="http://www.w3.org/1999/xlink" x="0px"
	 y="0px" viewBox="0 0 450 900" style="enable-background:new 0 0 450 900;" xml:space="preserve">
<path d="M21.8,874.5C6.7,859.8-0.8,841-0.8,818.2c0-30.5,10.1-52.8,30.3-66.9c11.4-7.8,22.8-12,34.2-12.5V777
	c-8.8,2.4-15.4,5.6-19.9,9.4c-8,6.8-11.9,16.9-11.9,30.3c0,13.6,5.6,24.4,16.8,32.3c11.2,7.9,27.1,11.8,47.7,11.8
	c20.6,0,36-4.2,46.2-12.5c10.2-8.3,15.4-18.9,15.4-31.7c0-13.1-4.4-23.1-13.2-30c-4.7-3.8-11.8-7-21.3-9.5v-38
	c20,3.3,36.2,11.7,48.7,25.2c12.5,13.5,18.8,30.8,18.8,51.8c0,26.1-8.5,46.6-25.4,61.5c-17,14.9-40.3,22.4-69.9,22.4
	C63.8,900,39.2,891.5,21.8,874.5z M103.5,657.3c-0.8-6.6-1.9-11.3-3.1-14.2c-2.2-5.1-5.5-7.6-10.1-7.6c-5.6,0-9.4,2-11.5,5.9
	c-2.1,3.9-3.2,9.6-3.2,17.2c0,8.5,2.1,14.5,6.2,18c3.1,2.5,7.2,4.2,12.4,5v34.2c-11.9-0.7-21.6-4.1-29.2-10
	c-11.9-9.4-17.9-25.6-17.9-48.5c0-14.9,2.9-28.1,8.8-39.7c5.9-11.6,17-17.4,33.3-17.4h62.2c4.3,0,9.5-0.1,15.7-0.2
	c4.6-0.2,7.8-1,9.5-2.1c1.7-1.2,3-2.9,4.1-5.2h5.2v38.5c-2.7,1.1-5.3,1.8-7.7,2.2c-2.4,0.4-5.1,0.7-8.2,1c5.3,4.9,9.8,10.6,13.6,17
	c4.4,7.7,6.6,16.3,6.6,26c0,12.3-3.5,22.5-10.5,30.6c-7,8-16.9,12.1-29.8,12.1c-16.7,0-28.7-6.5-36.2-19.4c-4.1-7.1-7-17.5-8.7-31.3
	L103.5,657.3z M120.1,635.7c1.4,2.3,2.5,4.6,3.4,6.9c0.9,2.3,1.7,5.5,2.4,9.5l1.5,8.1c1.3,7.6,2.9,13,4.8,16.3
	c3.2,5.6,8.2,8.4,15,8.4c6.1,0,10.4-1.7,13.1-5.1c2.7-3.4,4-7.6,4-12.4c0-7.7-2.2-14.9-6.7-21.4c-4.5-6.5-12.6-9.9-24.5-10.2H120.1z
	 M1,513.3c0.1-1.8,0.3-4.3,0.6-7.5h28.8c-0.2,2-0.4,5.3-0.6,10c-0.1,4.7,0.9,7.9,3.1,9.7c2.2,1.8,4.6,2.7,7.3,2.7
	c2.7,0,6.5,0,11.4,0V505h25v23.3H186v35.2H76.7v19.9h-25v-19.4H43c-14.5,0-24.5-2.4-30-7.3C4.9,551.4,0.8,539,0.8,519.4
	C0.8,517.2,0.9,515.1,1,513.3z M53.2,396.3c4.2-9.5,10.9-17.3,20.1-23.4c8.1-5.6,17.4-9.2,28-10.8c6.2-1,15.2-1.3,26.9-1.2v98.7
	c13.6-0.5,23.1-5.3,28.6-14.2c3.4-5.4,5.1-11.9,5.1-19.5c0-8.1-2.1-14.6-6.2-19.7c-2.2-2.8-5.3-5.2-9.3-7.3v-36.2
	c8,1,16.2,5.3,24.5,13.1c13.2,12.1,19.8,29.1,19.8,51c0,18-5.6,34-16.7,47.7c-11.1,13.8-29.2,20.7-54.3,20.7
	c-23.5,0-41.5-6.2-54-18.7c-12.5-12.4-18.8-28.6-18.8-48.5C46.8,416.3,48.9,405.7,53.2,396.3z M83.8,449.3c5.2,5,12.2,8.2,21,9.4
	v-61.1c-9.4,0.6-16.5,3.8-21.4,9.4c-4.9,5.6-7.3,12.7-7.3,21C76,437.2,78.6,444.3,83.8,449.3z M64.2,244.1
	c3.3-5.9,7.9-10.7,13.8-14.3H18.4v-33.1h168.7v31.7h-17.3c7.4,4.7,12.8,10,16.2,15.9c3.4,6,5,13.4,5,22.2c0,14.6-5.9,26.9-17.7,36.8
	c-11.8,10-26.9,15-45.4,15c-21.3,0-38.1-4.9-50.3-14.7c-12.2-9.8-18.3-22.9-18.3-39.4C59.2,256.7,60.9,249.9,64.2,244.1z M153.2,236
	c-6.9-4.8-15.8-7.2-26.7-7.2c-15.3,0-26.2,3.9-32.8,11.6c-4,4.7-6,10.2-6,16.5c0,9.6,3.6,16.6,10.8,21c7.2,4.5,16.2,6.7,26.9,6.7
	c11.5,0,20.8-2.3,27.7-6.8c6.9-4.5,10.4-11.4,10.4-20.7C163.5,247.9,160,240.9,153.2,236z M64.7,85.5c3.9-8.7,10.1-15.9,18.5-21.6
	c7.4-5.1,16-8.4,25.8-10c5.7-0.9,14-1.2,24.8-1.1v91c12.5-0.5,21.3-4.9,26.4-13.1c3.1-5,4.7-11,4.7-18c0-7.4-1.9-13.5-5.7-18.1
	c-2.1-2.5-4.9-4.8-8.6-6.7V54.6c7.4,0.9,14.9,4.9,22.6,12.1c12.1,11.2,18.2,26.9,18.2,47c0,16.6-5.1,31.3-15.4,44
	c-10.2,12.7-26.9,19.1-50,19.1c-21.6,0-38.2-5.7-49.8-17.2c-11.5-11.5-17.3-26.4-17.3-44.7C58.9,104,60.8,94.3,64.7,85.5z
	 M92.9,134.4c4.8,4.6,11.2,7.5,19.3,8.7V86.8c-8.7,0.6-15.2,3.5-19.7,8.7c-4.5,5.2-6.7,11.7-6.7,19.4
	C85.8,123.3,88.2,129.8,92.9,134.4z M364.8,750.9c11.6,14,17.5,33.9,17.5,59.8v49.6H468v49.5H229.6V807.4c0-23.6,6.1-42.4,18.4-56.4
	c12.3-14,31.3-21,57.1-21C333.3,729.9,353.1,736.9,364.8,750.9z M278.9,788.9c-5.3,6.3-7.9,15.1-7.9,26.5v44.9h70.2v-44.9
	c0-11.4-2.9-20.2-8.6-26.5c-5.7-6.3-14.8-9.5-27.2-9.5C293.1,779.4,284.2,782.6,278.9,788.9z M229.6,621.8v-56.4L468,481.2v54
	l-49,15.7v87.8l49,16.2v52.1L229.6,621.8z M377.9,625.1v-61l-93.8,30.1L377.9,625.1z M235.8,298.1c3.8-8.8,9.3-16.2,16.7-22.3
	c6-5,12.7-9,20.1-12c7.3-2.9,15.7-4.4,25.1-4.4c11.3,0,22.5,2.9,33.4,8.6c10.9,5.7,18.7,15.1,23.2,28.3c4.4-11,10.7-18.8,18.8-23.4
	c8.1-4.6,20.6-6.9,37.3-6.9h16c10.9,0,18.3-0.4,22.2-1.3c6.1-1.3,10.7-4.4,13.6-9.2h6v55c-5.3,1.5-9.5,2.6-12.8,3.2
	c-6.7,1.3-13.5,2-20.5,2.1l-22.2,0.3c-15.2,0.2-25.3,2.8-30.4,7.9c-5.1,5-7.6,14.5-7.6,28.4v48.6H468v48.7H229.6v-114
	C229.9,319.4,232,306.9,235.8,298.1z M271,401.1h64v-53.6c0-10.6-1.3-18.6-3.9-24c-4.5-9.4-13.5-14.1-26.8-14.1
	c-14.4,0-24.1,4.6-29.1,13.7c-2.8,5.1-4.2,12.8-4.2,23V401.1z M468,166.3v49.5H229.6v-49.5H468z M394.4,83.8
	c10.9-1.5,19-4.6,24.4-9.1c9.8-8.3,14.7-22.4,14.7-42.4c0-12-1.3-21.7-3.9-29.2c-5-14.2-14.2-21.3-27.6-21.3
	c-7.9,0-14,3.5-18.3,10.4c-4.2,7-7.9,18-11.2,33.1l-5.7,25.8c-5.6,25.4-11.7,42.8-18.3,52.3c-11,16.1-28.2,24.1-51.6,24.1
	c-21.3,0-39.1-7.9-53.2-23.6c-14.1-15.7-21.2-38.8-21.2-69.2c0-25.4,6.7-47.1,20-65.1c13.3-18,32.6-27.4,58-28.2v47.9
	C286.3-9.9,276.1-3.5,270,8.4c-4,8-6,17.8-6,29.7c0,13.2,2.6,23.7,7.8,31.5c5.2,7.8,12.4,11.8,21.7,11.8c8.5,0,14.9-3.9,19.1-11.6
	c2.8-5,6.1-15.5,9.9-31.7l9.9-41.8c4.3-18.3,10.1-32.1,17.3-41.2c11.2-14.2,27.4-21.3,48.7-21.3c21.8,0,39.9,8.4,54.2,25.3
	c14.4,16.8,21.6,40.6,21.6,71.3c0,31.4-7.1,56.1-21.3,74c-14.2,18-33.7,27-58.5,27V83.8z"/>
</svg>
