<?xml version="1.0" encoding="utf-8"?>
<!-- Generator: Adobe Illustrator 27.3.1, SVG Export Plug-In . SVG Version: 6.00 Build 0)  -->
<svg version="1.1" id="レイヤー_1" xmlns="http://www.w3.org/2000/svg" xmlns:xlink="http://www.w3.org/1999/xlink" x="0px"
	 y="0px" viewBox="0 0 1168 650" style="enable-background:new 0 0 1168 650;" xml:space="preserve">
<path d="M-16.4,37.4h119.7v25.4c0,0.7-0.5,1.2-1,1.2c-0.7,0-1-0.5-1-1.2c0-5.9-4.1-23.4-8-23.4H57c-3.2,0.2-5.9,1-5.9,3.4v160.9
	c0,3.7,5.9,3.4,11.2,3.4c0.5,0,1,0.5,1,1s-0.5,1-1,1H24.8c-0.7,0-1-0.5-1-1s0.2-1,1-1c5.1,0,11,0.2,11-3.4v-161
	c0-2.4-0.7-3.2-3.9-3.4H-6.7c-3.7,0-7.8,17.6-7.8,23.4c0,0.7-0.5,1.2-1,1.2s-1-0.5-1-1.2V37.4H-16.4z M241,208c0,0.5-0.5,1-1,1
	h-37.3c-0.7,0-1.2-0.5-1.2-1c0-0.7,0.5-1,1.2-1c5.1,0,11,0.2,11-3.7V111h-71.9v92.4c0,3.9,5.9,3.7,11.2,3.7c0.5,0,1,0.2,1,1
	c0,0.5-0.5,1-1,1h-37.8c-0.5,0-1-0.5-1-1c0-0.7,0.5-1,1-1c5.4,0,11.2,0.2,11.2-3.7V43c0-3.9-5.9-3.7-11.2-3.7c-0.5,0-1-0.2-1-1
	c0-0.5,0.5-1,1-1H153c0.5,0,1,0.5,1,1c0,0.7-0.5,1-1,1c-5.4,0-11.2-0.2-11.2,3.7v66h71.9V43c0-3.9-5.9-3.7-11-3.7
	c-0.7,0-1.2-0.2-1.2-1c0-0.5,0.5-1,1.2-1H240c0.5,0,1,0.5,1,1c0,0.7-0.5,1-1,1c-5.1,0-11-0.2-11,3.7v160.4c0,3.9,5.9,3.7,11,3.7
	C240.5,207,241,207.3,241,208z M282.9,39.3c-3.4,0.2-6.1,1-6.1,3.7v74.3h37.1c3.9,0,4.1-10,4.4-15.6c0-0.7,0.5-1.2,1-1.2
	c0.7,0,1.2,0.5,1.2,1.2v33.2c0,0.7-0.5,1.2-1.2,1.2c-0.5,0-1-0.5-1-1.2c0-5.6,0-15.6-4.4-15.6h-37.1v84.1c0,2.7,2.7,3.4,6.1,3.7h48
	c4.1-0.5,7.8-17.1,8.3-23.4c0-0.7,0.5-1.2,1-1.2c0.7,0,1.2,0.5,1.2,1.2V209h-91.2c-0.5,0-1-0.5-1-1c0-0.7,0.5-1,1-1
	c5.4,0,11.2,0.2,11.2-3.7V43c0-3.9-5.9-3.7-11.2-3.7c-0.5,0-1-0.2-1-1c0-0.5,0.5-1,1-1h91.2v25.4c0,0.7-0.5,1.2-1.2,1.2
	c-0.5,0-1-0.5-1-1.2c-0.5-6.3-4.1-22.9-8.3-23.4C330.9,39.3,282.9,39.3,282.9,39.3z M294,403.9c0,0,11.4-13.5,11.7-51.2
	c0-0.7,0.7-1.4,1.4-1.4c0.7,0,1.4,0.7,1.4,1.4v72.9c0,0.7-0.4,1.4-1.4,1.8c-0.7,0-1.4-0.7-1.8-1.4c-0.7-5.7-3.9-16.7-10-18.1
	l-1.4-0.4c-18.5,12.4-42.3,22-62.9,22c-67.2,0-122-65.1-122-128.7s54.8-128.7,122-128.7c20.6,0,44.4,9.6,62.9,22l1.4-0.4
	c6-1.4,9.2-12.4,10-18.1c0.4-0.7,1.1-1.4,1.8-1.4c1.1,0.4,1.4,1.1,1.4,1.8v72.9c0,0.7-0.7,1.4-1.4,1.4c-0.7,0-1.4-0.7-1.4-1.4
	c-0.4-37.7-11.7-51.2-11.7-51.2c-16-14.6-41.6-22.4-62.9-22.8c-62.6,1.4-99.6,69.3-99.6,125.9s37,124.5,99.6,125.9
	C252.4,426.3,278,418.5,294,403.9z M524.4,424.5c0,0.7-0.7,1.4-1.4,1.4h-54.4c-1.1,0-1.8-0.7-1.8-1.4c0-1.1,0.7-1.4,1.8-1.4
	c7.5,0,16,0.4,16-5.3V283H379.7v134.8c0,5.7,8.5,5.3,16.4,5.3c0.7,0,1.4,0.4,1.4,1.4c0,0.7-0.7,1.4-1.4,1.4H341
	c-0.7,0-1.4-0.7-1.4-1.4c0-1.1,0.7-1.4,1.4-1.4c7.8,0,16.4,0.4,16.4-5.3v-234c0-5.7-8.5-5.3-16.4-5.3c-0.7,0-1.4-0.4-1.4-1.4
	c0-0.7,0.7-1.4,1.4-1.4h55.1c0.7,0,1.4,0.7,1.4,1.4c0,1.1-0.7,1.4-1.4,1.4c-7.8,0-16.4-0.4-16.4,5.3v96.4h104.9v-96.4
	c0-5.7-8.5-5.3-16-5.3c-1.1,0-1.8-0.4-1.8-1.4c0-0.7,0.7-1.4,1.8-1.4H523c0.7,0,1.4,0.7,1.4,1.4c0,1.1-0.7,1.4-1.4,1.4
	c-7.5,0-16-0.4-16,5.3v234c0,5.7,8.5,5.3,16,5.3C523.7,423.1,524.4,423.5,524.4,424.5z M737.4,424.5c0,0.7-0.7,1.4-1.4,1.4h-54
	c-1.1,0-1.8-0.7-1.8-1.4c0-1.1,0.7-1.8,1.8-1.8c7.8,0.4,18.5,1.4,17.1-4.6l-32.7-112.4h-67.9l-36.6,112.4c-2.1,5.7,13.9,5,22.8,4.6
	c0.7,0,1.4,0.7,1.4,1.8c0,0.7-0.7,1.4-1.4,1.4H536c-0.7,0-1.4-0.7-1.4-1.4c0-1.1,0.7-1.8,1.4-1.8c8.5,0.4,21,2.1,23.1-4.6l74-227.6
	l-6.8-23.1l18.5-9.2L720,418.1c2.1,6.4,8.5,5,16,4.6C736.7,422.8,737.4,423.5,737.4,424.5z M599.4,302.9h66.1l-31.3-107L599.4,302.9
	z M969.6,424.5c0,0.7-0.4,1.4-1.4,1.4h-54.4c-1.1,0-1.8-0.7-1.8-1.4s0.7-1.4,1.8-1.4c7.5,0,16,0.4,16-5V187.7l-78.2,242.5
	c0,0.7-2.1,0.4-2.1,0l-75.7-242.5v230.8c0,4.6,22,4.6,22,4.6c0.7,0,1.4,0.7,1.4,1.8c-0.4,0.7-0.7,1.1-1.4,1.1h-46.9
	c-0.7,0-1.4-0.7-1.4-1.4s0.7-1.4,1.4-1.4c0,0,22,0,22-4.6V181.3c-3.6-2.8-9.2-2.8-14.9-2.8c-1.1,0-1.8-0.7-1.4-1.8
	c0-0.7,0.7-1.1,1.4-1.1h35.2l68.6,219.8l71.1-219.8h37.3c1.1,0,1.4,0.7,1.4,1.4s-0.4,1.4-1.4,1.4c-7.5,0-16-0.4-16,5v234.7
	c0,5.3,8.5,5,16,5C969.2,423.1,969.6,423.8,969.6,424.5z M1075.9,175.6c38.4,0,73.6,27.4,73.6,67.9c0,40.2-35.2,67.9-73.6,67.9h-27
	c-0.7,0-1.4-0.7-1.4-1.4c0-0.7,0.7-1.4,1.4-1.4h19.2c42-1.8,59-32,59-65.1c0-30.6-22-64.4-59-65.1h-34.8c-5.7,0.4-11,1.4-11,6.4
	v232.9c0,5.7,8.5,5.3,16.4,5.3c0.7,0,1.4,0.7,1.4,1.4s-0.7,1.4-1.4,1.4h-55.1c-0.7,0-1.4-0.7-1.4-1.8c0-0.7,0.7-1.1,1.4-1.1
	c7.8,0,16.4,0.4,16.4-5.3v-234c0-5.7-8.5-5.3-16.4-5.3c-0.7,0-1.4-0.7-1.4-1.4s0.7-1.4,1.4-1.4h92.3V175.6z M495,653.2
	c0,0.7-0.7,1.4-1.4,1.4h-55.1c-0.7,0-1.4-0.7-1.4-1.4c0-1.1,0.7-1.4,1.4-1.4c7.8,0,16.4,0.4,16.4-5.3v-234c0-5.7-8.5-5.3-16.4-5.3
	c-0.7,0-1.4-0.4-1.4-1.4c0-0.7,0.7-1.4,1.4-1.4h55.1c0.7,0,1.4,0.7,1.4,1.4c0,1.1-0.7,1.4-1.4,1.4c-7.8,0-16.4-0.4-16.4,5.3v234
	c0,5.7,8.5,5.3,16.4,5.3C494.3,651.8,495,652.1,495,653.2z M781.3,529.4c0,70.1-61.2,128.7-130.9,128.7c-69,0-130.5-58-130.5-128.7
	c0-70.1,61.2-128.7,130.5-128.7C720.1,400.7,781.3,459,781.3,529.4z M758.9,529.4c0-61.2-42.3-126.6-108.5-125.9
	c-65.8-0.7-108.1,65.4-108.1,125.9c0,61.2,42.3,126.6,108.1,125.9C716.6,656,759.9,590.6,758.9,529.4z M981.1,404.3
	c0.7,0,1.4,0.7,1.4,1.4s-0.7,1.4-1.4,1.4c-8.2,0-16.7,0-16.7,6.4v245.7h-3.6L822.2,417.4v227.9c0,5.3,8.5,6,16.7,6
	c1.1,0.4,1.4,0.7,1.4,1.8c0,0.7-0.7,1.4-1.4,1.4h-36.3c-0.7,0-1.4-0.7-1.4-1.4c0-1.1,0.7-1.8,1.4-1.8c7.8,0.4,16.7,0.4,16.7-6V413.5
	c0-5.7-8.5-6.4-16.7-6.4c-0.7,0-1.4-0.7-1.4-1.4s0.7-1.4,1.4-1.4h35.6l123.4,215.1V413.5c0-5.7-8.2-6.4-16.4-6.4
	c-1.1,0-1.4-0.7-1.4-1.4s0.4-1.4,1.4-1.4L981.1,404.3L981.1,404.3z M1077.1,657.8c-24.5,0.4-46.9-6.8-61.9-24.9
	c-9.6,1.4-10,21.7-10,21.7h-3.2v-74.3h3.2c0,51.2,25.2,75,71.5,74.7c33.4,0,55.5-35.2,55.5-68.6c0-28.1-27.4-43-50.1-54.4
	l-30.9-16.4c-20.3-11.4-39.8-30.9-39.8-56.5c0-33.8,33.1-58.3,64.7-58.3c16.7,0,33.8,6,44.4,19.2c9.6-1.4,10-15.6,10-15.6h2.8v68.3
	h-1.4h-1.4c-0.4-45.5-14.9-69-54.4-69c-27.7,1.1-52.6,26-52.6,55.1c0,20.6,20.3,31.3,37.3,38.8l31.6,13.9
	c29.9,13.9,51.9,39.1,51.9,74C1144.3,623.3,1113.7,657.5,1077.1,657.8z"/>
</svg>
