<?xml version="1.0" encoding="utf-8"?>
<!-- Generator: Adobe Illustrator 27.2.0, SVG Export Plug-In . SVG Version: 6.00 Build 0)  -->
<svg version="1.1" id="レイヤー_2" xmlns="http://www.w3.org/2000/svg" xmlns:xlink="http://www.w3.org/1999/xlink" x="0px"
	 y="0px" viewBox="0 0 290.2 409.6" style="enable-background:new 0 0 290.2 409.6;" xml:space="preserve">
<style type="text/css">
	.st4{fill:#264DE4;}
	.st5{fill:#2965F1;}
	.st6{fill:#EBEBEB;}
	.st7{fill:#FFFFFF;}
</style>
<polygon id="polygon2989" class="st4" points="290.2,80.5 263.8,376.7 144.9,409.6 26.4,376.7 0,80.5 "/>
<polygon id="polygon2991" class="st5" points="241.1,357.8 263.7,104.7 145.1,104.7 145.1,384.4 "/>
<polygon id="polygon2993" class="st6" points="60.5,214.6 63.8,250.9 145.1,250.9 145.1,214.6 "/>
<polygon id="polygon2995" class="st6" points="145.1,141 145,141 54,141 57.3,177.4 145.1,177.4 "/>
<polygon id="polygon2997" class="st6" points="145.1,346.7 145.1,308.9 144.9,309 104.5,298 101.9,269.1 82.2,269.1 65.4,269.1
	70.5,326.1 144.9,346.8 "/>
<path id="path2999" d="M68.3,0h44v18.4H86.7v18.4h25.6v18.4h-44V0z"/>
<path id="path3001" d="M121.1,0h44v16h-25.6v3.2h25.6V56h-44V39.2h25.6V36h-25.6V0z"/>
<path id="path3003" d="M173.9,0h44v16h-25.6v3.2h25.6V56h-44V39.2h25.6V36h-25.6V0z"/>
<polygon id="polygon3005" class="st7" points="189.7,250.9 185.5,298 145,309 145,346.7 219.4,326.1 220,320 228.5,224.3
	229.4,214.6 236,141 145,141 145,177.4 196.2,177.4 192.9,214.6 145,214.6 145,250.9 "/>
</svg>
