<?xml version="1.0" encoding="utf-8"?>
<!-- Generator: Adobe Illustrator 27.2.0, SVG Export Plug-In . SVG Version: 6.00 Build 0)  -->
<svg version="1.1" id="レイヤー_5" xmlns="http://www.w3.org/2000/svg" xmlns:xlink="http://www.w3.org/1999/xlink" x="0px"
	 y="0px" viewBox="0 0 631.6 631.6" style="enable-background:new 0 0 631.6 631.6;" xml:space="preserve">
<style type="text/css">
	.st12{fill:#F7DF1E;}
</style>
<path class="st12" d="M61.7,0h508.2c34.1,0,61.7,27.6,61.7,61.7v508.2c0,34.1-27.6,61.7-61.7,61.7H61.7C27.6,631.6,0,604,0,569.9
	V61.7C0.1,27.6,27.7,0,61.7,0z"/>
<path d="M424.8,492.9c12.7,20.7,29.2,36,58.4,36c24.5,0,40.2-12.3,40.2-29.2c0-20.3-16.1-27.5-43.1-39.3l-14.8-6.4
	c-42.7-18.2-71.1-41-71.1-89.2c0-44.4,33.8-78.2,86.7-78.2c37.6,0,64.7,13.1,84.2,47.4l-46.1,29.6c-10.2-18.2-21.1-25.4-38.1-25.4
	c-17.3,0-28.3,11-28.3,25.4c0,17.8,11,25,36.4,36l14.8,6.3c50.3,21.6,78.7,43.6,78.7,93c0,53.3-41.9,82.5-98.1,82.5
	c-55,0-90.5-26.2-107.9-60.5L424.8,492.9z M215.6,498.1c9.3,16.5,17.8,30.5,38.1,30.5c19.5,0,31.7-7.6,31.7-37.2V290h59.2v202.1
	c0,61.3-35.9,89.2-88.4,89.2c-47.4,0-74.9-24.5-88.8-54.1L215.6,498.1z"/>
</svg>
