<?xml version="1.0" encoding="utf-8"?>
<!-- Generator: Adobe Illustrator 27.2.0, SVG Export Plug-In . SVG Version: 6.00 Build 0)  -->
<svg version="1.1" xmlns="http://www.w3.org/2000/svg" xmlns:xlink="http://www.w3.org/1999/xlink" x="0px" y="0px"
	 viewBox="0 0 129.1 145.4" style="enable-background:new 0 0 129.1 145.4;" xml:space="preserve">
<style type="text/css">
	.st15{fill:#689F63;}
</style>
<g id="レイヤー_1">
</g>
<g id="レイヤー_7">
	<path class="st15" d="M64.6,145.4c-1.9,0-3.9-0.5-5.6-1.5l-17.8-10.5c-2.7-1.5-1.4-2-0.5-2.3c3.5-1.2,4.3-1.5,8-3.7
		c0.4-0.2,0.9-0.1,1.3,0.1l13.7,8.1c0.5,0.3,1.2,0.3,1.7,0l53.3-30.7c0.5-0.3,0.8-0.9,0.8-1.4V41.9c0-0.6-0.3-1.2-0.8-1.5L65.4,9.7
		c-0.5-0.3-1.1-0.3-1.6,0L10.6,40.4c-0.5,0.3-0.8,0.9-0.8,1.5v61.5c0,0.6,0.3,1.1,0.8,1.4l14.6,8.4c7.9,4,12.8-0.7,12.8-5.4V47.1
		c0-0.9,0.7-1.5,1.5-1.5h6.7c0.8,0,1.5,0.7,1.5,1.5v60.7c0,10.6-5.8,16.6-15.8,16.6c-3.1,0-5.5,0-12.3-3.3l-14-8.1
		c-3.5-2-5.6-5.7-5.6-9.7V41.9c0-4,2.1-7.7,5.6-9.7L59,1.4c3.4-1.9,7.9-1.9,11.2,0l53.3,30.8c3.4,2,5.6,5.7,5.6,9.7v61.5
		c0,4-2.1,7.7-5.6,9.7l-53.3,30.8C68.5,144.8,66.6,145.3,64.6,145.4"/>
	<path class="st15" d="M81.1,103c-23.3,0-28.2-10.7-28.2-19.7c0-0.9,0.7-1.5,1.5-1.5h6.9c0.8,0,1.4,0.6,1.5,1.3
		c1,7,4.1,10.5,18.2,10.5c11.2,0,16-2.5,16-8.5c0-3.4-1.4-6-18.8-7.7C63.6,76,54.6,72.8,54.6,61.2c0-10.7,9.1-17.1,24.3-17.1
		c17.1,0,25.5,5.9,26.6,18.6c0,0.4-0.1,0.9-0.4,1.2s-0.7,0.5-1.1,0.5h-6.9c-0.7,0-1.3-0.5-1.5-1.2c-1.7-7.4-5.7-9.7-16.6-9.7
		c-12.3,0-13.7,4.3-13.7,7.5c0,3.9,1.7,5,18.2,7.2c16.4,2.2,24.1,5.2,24.1,16.7C107.5,96.4,97.9,103.1,81.1,103"/>
</g>
</svg>
