<?xml version="1.0" encoding="utf-8"?>
<!-- Generator: Adobe Illustrator 27.2.0, SVG Export Plug-In . SVG Version: 6.00 Build 0)  -->
<svg version="1.1" id="レイヤー_4" xmlns="http://www.w3.org/2000/svg" xmlns:xlink="http://www.w3.org/1999/xlink" x="0px"
	 y="0px" viewBox="0 0 691.2 363.6" style="enable-background:new 0 0 691.2 363.6;" xml:space="preserve">
<style type="text/css">
	.st9{fill:url(#path3462_00000132790942409925588720000001593380172839318452_);}
	.st10{fill:#777BB3;}
	.st11{fill:#FFFFFF;}
</style>
<radialGradient id="path3462_00000112596895793065072060000005824535900514890404_" cx="-611.9889" cy="721.5732" r="1" gradientTransform="matrix(453.8224 0 0 -453.8224 277941.75 327529.9688)" gradientUnits="userSpaceOnUse">
	<stop  offset="0" style="stop-color:#AEB2D5"/>
	<stop  offset="0.3" style="stop-color:#AEB2D5"/>
	<stop  offset="0.75" style="stop-color:#484C89"/>
	<stop  offset="1" style="stop-color:#484C89"/>
</radialGradient>
<path id="path3462" style="fill:url(#path3462_00000112596895793065072060000005824535900514890404_);" d="M0,181.8
	c0,100.4,154.7,181.8,345.6,181.8l0,0c190.9,0,345.6-81.4,345.6-181.8l0,0C691.2,81.4,536.5,0,345.6,0l0,0C154.7,0,0,81.4,0,181.8"
	/>
<path id="path3474" class="st10" d="M345.6,350.1c183.4,0,332.1-75.4,332.1-168.3c0-92.9-148.7-168.3-332.1-168.3
	S13.5,88.8,13.5,181.8C13.5,274.7,162.2,350.1,345.6,350.1"/>
<g id="g3478">
	<g id="g3484" transform="translate(161.7344,145.3066)">
		<path id="path3486" d="M26,57.4c15.1,0,26.3-2.8,33.5-8.3c7-5.4,11.9-14.8,14.5-27.9c2.4-12.3,1.5-20.8-2.7-25.4
			C67-9,57.8-11.4,43.9-11.4H19.8L6.4,57.4H26z M-52.8,142c-1.1,0-2.2-0.5-2.9-1.4c-0.7-0.9-1-2-0.8-3.1l35.4-182.2
			c0.3-1.8,1.9-3,3.7-3h76.3c24,0,41.8,6.5,53.1,19.4c11.3,12.9,14.8,31,10.4,53.7c-1.8,9.2-4.9,17.8-9.2,25.5
			c-4.3,7.7-10,14.8-16.9,21.2C88,79.8,78.7,85.4,68.5,88.7c-10,3.3-22.9,4.9-38.2,4.9H-0.6L-9.4,139c-0.3,1.8-1.9,3-3.7,3H-52.8z"
			/>
	</g>
	<g id="g3488" transform="translate(159.2236,197.3071)">
		<path id="path3490" class="st11" d="M25.4-59.6h21C63.2-59.6,69-56,71-53.8c3.3,3.6,3.9,11.3,1.8,22.2C70.4-19.4,66-10.7,59.7-5.9
			c-6.5,5-16.9,7.5-31.2,7.5h-15L25.4-59.6z M61.4-103.4h-76.3c-3.6,0-6.7,2.5-7.4,6.1L-57.6,84.9c-0.4,2.2,0.2,4.5,1.6,6.2
			c1.4,1.7,3.5,2.7,5.8,2.7h39.7c3.6,0,6.7-2.5,7.4-6.1L5,45.4h27.8c15.7,0,29-1.7,39.3-5.1c10.7-3.5,20.5-9.4,29.2-17.5
			c7.2-6.6,13.1-14,17.6-22.1c4.5-8,7.7-17,9.6-26.6c4.6-23.9,0.9-43-11.2-56.8C105.4-96.4,86.6-103.4,61.4-103.4 M4.4,9.1h24.1
			c16,0,27.9-3,35.8-9C72.1-6,77.4-16,80.2-30.1c2.6-13.5,1.4-23.1-3.6-28.7c-5-5.6-15.1-8.3-30.2-8.3H19.2L4.4,9.1 M61.4-95.9
			c23,0,39.7,6,50.2,18.1c10.5,12.1,13.7,28.9,9.5,50.5c-1.7,8.9-4.7,17-8.8,24.4c-4.1,7.4-9.5,14.1-16.2,20.2
			C88.3,24.7,79.5,30,69.8,33.1c-9.7,3.2-22,4.7-37,4.7h-34l-9.4,48.4h-39.7l35.4-182.2H61.4"/>
	</g>
	<g id="g3492" transform="translate(311.583,116.3066)">
		<path id="path3494" d="M63.5,122.6c-1.1,0-2.2-0.5-2.9-1.4c-0.7-0.9-1-2-0.8-3.1l15.7-80.6c1.5-7.7,1.1-13.2-1-15.5
			c-1.3-1.4-5.3-3.8-17-3.8H29.1L9.4,119.6c-0.3,1.8-1.9,3-3.7,3h-39.4c-1.1,0-2.2-0.5-2.9-1.4c-0.7-0.9-1-2-0.8-3.1L-2-64
			c0.3-1.8,1.9-3,3.7-3h39.4c1.1,0,2.2,0.5,2.9,1.4c0.7,0.9,1,2,0.8,3.1l-8.5,44h30.5c23.3,0,39,4.1,48.2,12.5
			c9.4,8.6,12.3,22.4,8.7,40.9l-16.5,84.8c-0.3,1.8-1.9,3-3.7,3H63.5z"/>
	</g>
	<g id="g3496" transform="translate(293.6611,271.0571)">
		<path id="path3498" class="st11" d="M59-225.6H19.6c-3.6,0-6.7,2.5-7.4,6.1L-23.1-37.3c-0.4,2.2,0.2,4.5,1.6,6.2s3.5,2.7,5.8,2.7
			h39.4c3.6,0,6.7-2.5,7.4-6.1l19.1-98.3h25.3c11.7,0,14.2,2.5,14.3,2.6c0.7,0.8,1.6,4.3,0.1,12.2L74.1-37.3
			c-0.4,2.2,0.2,4.5,1.6,6.2c1.4,1.7,3.5,2.7,5.8,2.7h40c3.6,0,6.7-2.5,7.4-6.1l16.5-84.8c3.9-19.9,0.6-34.8-9.8-44.4
			c-9.9-9.1-26.5-13.5-50.7-13.5h-26l7.7-39.5c0.4-2.2-0.1-4.5-1.6-6.2C63.4-224.6,61.3-225.6,59-225.6 M59-218.1l-9.4,48.4h35.1
			c22.1,0,37.3,3.9,45.7,11.5c8.4,7.7,10.9,20.2,7.5,37.4l-16.5,84.8h-40l15.7-80.6c1.8-9.2,1.1-15.4-2-18.8c-3.1-3.3-9.7-5-19.8-5
			H43.9L23.6-35.9h-39.4l35.4-182.2H59"/>
	</g>
	<g id="g3500" transform="translate(409.5498,145.3066)">
		<path id="path3502" d="M88,57.4c15.1,0,26.3-2.8,33.5-8.3c7-5.4,11.9-14.8,14.5-27.9c2.4-12.3,1.5-20.8-2.7-25.4
			c-4.3-4.7-13.5-7.1-27.4-7.1H81.8L68.4,57.4H88z M9.2,142c-1.1,0-2.2-0.5-2.9-1.4c-0.7-0.9-1-2-0.8-3.1L40.9-44.6
			c0.3-1.8,1.9-3,3.7-3h76.3c24,0,41.8,6.5,53.1,19.4c11.3,12.9,14.8,31,10.4,53.7c-1.8,9.2-4.9,17.8-9.2,25.5
			c-4.3,7.7-10,14.8-16.9,21.2c-8.3,7.7-17.6,13.4-27.8,16.7c-10,3.3-22.9,4.9-38.2,4.9H61.4L52.5,139c-0.3,1.8-1.9,3-3.7,3H9.2z"/>
	</g>
	<g id="g3504" transform="translate(407.0391,197.3071)">
		<path id="path3506" class="st11" d="M87.4-59.6h21c16.8,0,22.6,3.7,24.6,5.9c3.3,3.6,3.9,11.3,1.8,22.2
			c-2.4,12.2-6.8,20.8-13.1,25.7c-6.5,5-16.9,7.5-31.2,7.5h-15L87.4-59.6z M123.4-103.4H47.1c-3.6,0-6.7,2.5-7.4,6.1L4.3,84.9
			c-0.4,2.2,0.2,4.5,1.6,6.2c1.4,1.7,3.5,2.7,5.8,2.7h39.7c3.6,0,6.7-2.5,7.4-6.1L67,45.4h27.8c15.7,0,29-1.7,39.3-5.1
			c10.7-3.5,20.5-9.4,29.2-17.5c7.2-6.6,13.1-14,17.6-22.1c4.5-8,7.7-17,9.6-26.6c4.6-23.9,0.9-43-11.2-56.8
			C167.3-96.4,148.5-103.4,123.4-103.4 M66.4,9.1h24.1c16,0,27.9-3,35.8-9c7.8-6,13.1-16.1,15.9-30.2c2.6-13.5,1.4-23.1-3.6-28.7
			c-5-5.6-15.1-8.3-30.2-8.3H81.2L66.4,9.1 M123.4-95.9c23,0,39.7,6,50.2,18.1c10.5,12.1,13.7,28.9,9.5,50.5
			c-1.7,8.9-4.7,17-8.8,24.4c-4.1,7.4-9.5,14.1-16.2,20.2c-7.9,7.4-16.7,12.7-26.4,15.8c-9.7,3.2-22,4.7-37,4.7h-34l-9.4,48.4H11.7
			L47.1-95.9H123.4"/>
	</g>
</g>
</svg>
