<?xml version="1.0" encoding="utf-8"?>
<!-- Generator: Adobe Illustrator 27.2.0, SVG Export Plug-In . SVG Version: 6.00 Build 0)  -->
<svg version="1.1" id="レイヤー_8" xmlns="http://www.w3.org/2000/svg" xmlns:xlink="http://www.w3.org/1999/xlink" x="0px"
	 y="0px" viewBox="0 0 234.8 209.1" style="enable-background:new 0 0 234.8 209.1;" xml:space="preserve">
<style type="text/css">
	.st16{fill:#61DAFB;}
</style>
<path class="st16" d="M117.4,83.5c11.3,0,20.4,9.1,20.4,20.4s-9.1,20.4-20.4,20.4S97,115.2,97,103.9S106.1,83.5,117.4,83.5z
	 M234.8,103.9c0-16.3-19.6-30.7-49.9-39.3c7.5-30.1,5-53.7-9.3-61.7c-13.8-8.2-35.7,1.4-58.3,23.3C94.7,4.3,72.6-5.3,58.2,2.9
	c-12.2,7.1-16.3,24.5-12.2,49c0.8,4.2,1.7,8.5,2.9,13C19.2,73.6,0,87.8,0,103.9c0,16.7,19.2,30.8,48.9,39.3c-1.2,4.7-2.2,9.3-3,13.7
	c-4.1,24.5,0,41.8,12.2,49c4.1,2,8.2,3.1,12.2,3.1c10.2,0,23.5-6.1,35.7-16.3c3.5-2.9,7-6.1,10.5-9.6c3.6,3.5,7.3,6.7,10.9,9.6
	c13.3,10.2,26.5,16.3,36.7,16.3c4.1,0,8.2-1,11.2-3.1c12.2-7.1,16.3-24.5,12.2-49c-0.8-4.3-1.8-8.8-3-13.4
	C215.1,135.1,234.8,120.9,234.8,103.9z M169.4,12.1c9.7,4.9,11.8,23.8,5.3,49.9c-9.7-2.2-20.2-3.9-31.4-4.9
	c-6.2-8.8-12.7-16.8-19.1-23.8C139.8,18.2,154.3,10,164.3,10C166.4,10,169.4,10,169.4,12.1z M149,123.3c-3.4,6.1-7,12-10.8,17.6
	c-6.7,0.5-13.6,0.8-20.9,0.8c-7.6,0-14.8-0.3-21.8-0.8c-3.8-5.6-7.4-11.4-10.9-17.5c-3.5-6.3-6.8-12.6-9.8-19
	c3-6.2,6.3-12.5,9.8-18.8c3.8-6.6,7.7-12.8,11.7-18.6c6.7-0.5,13.7-0.8,21-0.8c7,0,13.8,0.3,20.3,0.7c3.9,5.8,7.7,12,11.3,18.7
	c3.7,6.1,7.1,12.3,10.1,18.5C156.1,110.4,152.8,116.8,149,123.3z M164.8,116.3c2.9,6.7,5.4,13.3,7.4,19.7
	c-6.5,1.5-13.4,2.7-20.8,3.6c2.3-3.6,4.6-7.4,6.8-11.2C160.5,124.4,162.7,120.3,164.8,116.3z M103.3,151.6c4.6,0.2,9.3,0.3,14.1,0.3
	c4.5,0,9-0.1,13.3-0.3c-4.4,5.9-9,11.5-13.6,16.6C112.4,163.1,107.8,157.5,103.3,151.6z M82.2,139.5c-7.1-0.9-13.8-2.1-20.1-3.6
	c2-6.2,4.4-12.5,7.1-19c2,3.8,4.1,7.7,6.3,11.5C77.7,132.2,79.9,135.9,82.2,139.5z M69.3,91.8C66.5,85,64,78.4,61.9,72
	c6.6-1.5,13.6-2.8,21.1-3.7c-2.6,3.9-5.1,8-7.6,12.2C73.4,84.2,71.3,88,69.3,91.8z M117.3,40.5c4.3,4.7,8.6,10,12.9,15.7
	c-4.2-0.2-8.5-0.3-12.8-0.3c-4.5,0-8.9,0.1-13.3,0.3C108.5,50.5,112.9,45.2,117.3,40.5z M158.2,80.5c-2.4-4.2-4.9-8.3-7.4-12.3
	c7.5,0.9,14.6,2.2,21.2,3.6c-2,6.4-4.5,13.2-7.4,20.3C162.5,88.2,160.4,84.3,158.2,80.5z M56.1,49.8c-3.1-19.4,0-33.7,7.1-38.8
	c2-1,5.1-1,7.1-1c10,0,24.4,8.1,39.8,23.2c-6.6,7-13.2,15.1-19.6,23.9C79.4,58.2,68.8,60,59,62.2C57.9,58,56.9,53.8,56.1,49.8z
	 M10.2,103.9c0-10.3,15.5-21.7,41.4-29.3c3,9.6,6.8,19.6,11.5,29.7c-4.5,9.8-8.3,19.5-11.3,28.9C25.8,125.7,10.2,114.3,10.2,103.9z
	 M100,184.6c-15.3,13.3-28.6,17.4-36.7,13.3c-8.2-5.1-10.2-19.4-7.1-38.8c0.8-4.3,1.8-8.7,3-13.2c9.4,2.1,19.6,3.7,30.4,4.8
	c6.4,9.3,13.2,17.8,20.1,25.3C106.4,179,103.2,181.9,100,184.6z M177.6,159c3.1,20.4,1,34.7-7.1,38.8c-7.1,4.1-21.4-1-36.7-13.3
	c-3.2-2.8-6.4-5.8-9.6-9.1c6.8-7.4,13.5-15.7,19.9-24.8c11.1-1,21.5-2.6,31.1-4.7C176.1,150.5,177,154.9,177.6,159z M181.9,133.6
	c-3-9.4-6.8-19.2-11.3-29.1c4.8-10.4,8.6-20.5,11.6-30.1c26.5,7.5,42.4,19.1,42.4,29.6C224.6,114.4,208.5,126,181.9,133.6z"/>
</svg>
