<?xml version="1.0" encoding="utf-8"?>
<!-- Generator: Adobe Illustrator 27.3.1, SVG Export Plug-In . SVG Version: 6.00 Build 0)  -->
<svg version="1.1" id="レイヤー_1" xmlns="http://www.w3.org/2000/svg" xmlns:xlink="http://www.w3.org/1999/xlink" x="0px"
	 y="0px" viewBox="0 0 432.7 743" style="enable-background:new 0 0 432.7 743;" xml:space="preserve">
<g>
	<path d="M412.6,93.2c0-0.1,0-0.2,0-0.3c0-0.5,0.3-0.7,0.7-0.9c6.1-2.9,12.9-6.3,14.6-11.6c0.5-1.8,0.5-7.6,0.5-11.2h-57.3
		c-2.7,0-3.9,2.9-4.5,8c-0.1,0.3-0.3,0.7-0.8,0.7s-0.7-0.3-0.7-0.8v-25c0-0.5,0.2-0.8,0.7-0.8s0.7,0.2,0.8,0.7
		c0.5,5.2,1.8,7.8,4.5,7.8h57.4c0-3,0-9.3-0.5-11c-1.6-5.3-8.6-8.7-14.6-11.6c-0.4-0.3-0.7-0.4-0.7-0.9c0-0.1,0-0.2,0-0.3
		c0.1-0.4,0.5-0.6,1-0.5c5.3,1.2,12.4,2.3,17.6,2.7c0.6,0,1.1,0.3,1.1,0.8v0.1c-0.8,11.4-0.8,17.1-0.8,25.5c0,8.7,0,14.1,0.8,25.5
		v0.1c0,0.4-0.3,0.5-0.6,0.7c-0.2,0-0.3,0.1-0.4,0.1c-5.2,0.4-12.3,1.4-17.6,2.6c-0.1,0.1-0.3,0.1-0.4,0.1
		C413,93.7,412.7,93.5,412.6,93.2z"/>
	<path d="M388.1,141.6l-2.7-32.2c-11.6,1.3-17,8.4-17,16.2c0,5.8,2.3,10.6,7,14c0.3,0.2,0.4,0.5,0.4,0.8s0,0.4-0.2,0.7
		c-0.3,0.3-0.5,0.4-0.9,0.4c-0.1,0-0.3,0-0.4-0.1c-6.6-2.9-10.2-9.1-10.2-17.9c0-14.4,9.5-23,23.7-23c14.5,0,23.6,9.3,23.6,22
		c0,11.1-8.3,20.1-20.9,20.1C388.7,142.7,388.2,142.5,388.1,141.6z M408.2,121.7c0-7.5-5.8-12.6-17.6-12.6c-0.8,0-1.2,0-1.9,0
		l2.7,24.7c0,0.5,0.4,0.5,1,0.5C399.7,134.4,408.2,130.4,408.2,121.7z"/>
	<path d="M365.1,170.6v-19.5c0-0.6,0.2-0.8,0.7-0.8s0.7,0.2,0.8,0.7c0.4,4.9,2.3,5.3,5,5.3H425c2.3,0,2.6,0,2.6-4.9
		c0-0.7,0.4-1.1,0.9-1.1c0.4,0,0.7,0.3,0.8,0.8c0.6,3.9,2.1,9.9,3.4,13.6c0,0.1,0,0.1,0,0.2c0,0.3-0.4,0.4-1,0.4h-60.1
		c-2.7,0-4.6,0.6-5,5.5c0,0.4-0.3,0.7-0.8,0.7S365.1,171.1,365.1,170.6z"/>
	<path d="M388.1,219.7l-2.7-32.2c-11.6,1.3-17,8.4-17,16.2c0,5.8,2.3,10.6,7,14c0.3,0.2,0.4,0.5,0.4,0.8s0,0.4-0.2,0.7
		c-0.3,0.3-0.5,0.4-0.9,0.4c-0.1,0-0.3,0-0.4-0.1c-6.6-2.9-10.2-9.1-10.2-17.9c0-14.4,9.5-23,23.7-23c14.5,0,23.6,9.3,23.6,22
		c0,11.1-8.3,20.1-20.9,20.1C388.7,220.8,388.2,220.6,388.1,219.7z M408.2,199.8c0-7.5-5.8-12.6-17.6-12.6c-0.8,0-1.2,0-1.9,0
		l2.7,24.7c0,0.5,0.4,0.5,1,0.5C399.7,212.5,408.2,208.5,408.2,199.8z"/>
	<path d="M403.3,272.8c0-4.2,4.3-1.1,4.3-6.5c0-0.9-0.2-2-0.7-3.1c-2.7,2.9-6.1,4.4-10.3,4.4c-8.1,0-14.4-6.2-14.4-18.2
		c0-2.1,0.1-3.8,0.6-5.7c-1.7-3.3-3.2-5.2-5-5.3c-1.5-0.1-2.2,2.4-2.2,8.3c0,19.4-3.4,27.6-13.1,27.6c-9.9,0-14.8-11.2-14.8-26.4
		c0-14.5,5.2-19.4,10.5-19.4c5.2,0,9.6,3.4,11.9,8c0.5-4.2,2.9-5.8,5.4-5.8c3.1,0,6.2,4.1,8.4,8.9c2.3-5.7,7.1-8.7,12.8-8.7
		c8.4,0,14.7,6,14.7,18.4c0,4.9-1,8.7-2.9,11.7c1.9,2.7,2.9,6.2,2.9,8.4c0,4.6-1.5,7.1-4.2,7.1C404.6,276.6,403.3,275.5,403.3,272.8
		z M369.8,241.1c-2.5-4.6-6.7-6.5-9.9-6.5c-5.8,0-9,4.2-9,14.7c0,10.3,5.8,15.8,9.9,15.8C367,265.1,369.5,260.1,369.8,241.1z
		 M408.5,248.4c0-6.4-4.1-9-10.6-9c-7.5,0-12.8,3.8-12.8,10.9c0,6.2,3.8,8.7,10.1,8.7C402.7,259,408.5,255.3,408.5,248.4z"/>
	<path d="M399,313.5c0-7.7,8-1,8-9.1c0-5.1-5.2-10.4-9.8-10.4h-25.5c-2.7,0-4.6,0.7-5,5.2c0,0.4-0.3,0.7-0.8,0.7s-0.7-0.3-0.7-0.8
		v-18.7c0-0.8,0.2-0.8,0.7-0.8s0.7,0.2,0.8,0.7c0.4,4.6,2.3,5.2,5,5.2h31.9c2.6,0,2.9-0.8,2.9-4.9c0-0.6,0.4-1,0.9-1
		c0.4,0,0.8,0.3,0.9,0.7c0.8,4.4,2.1,9.5,3.1,12.9c0,0.1,0,0.2,0,0.3c0,0.4-0.4,0.5-1,0.5h-6.2c4.6,3.6,7.3,8.2,7.3,14.1
		c0,5.3-3.6,9-7.6,9C400.4,317.1,399,315.9,399,313.5z"/>
	<path d="M366.9,368.6c-1.6-1.7-2.8-4.6-2.8-7.5c0-5.3,2.4-7.6,7.1-7.9c-4.6-3.6-7.1-10.6-7.1-17c0-9.2,4.6-14,12-14
		c9.3,0,13.5,5.9,15.2,17.2c0.5,3.7,1.9,9.6,3,13c10.1,0,13.5-4.6,13.5-11.2c0-7.3-2.3-9.8-5.5-9.8c-1.3,0-2.2,1.4-4.1,1.4
		c-2.9,0-4.3-1.5-4.3-4.6c0-2.8,2.2-4.4,5.1-4.4c6.8,0,12.3,6.9,12.3,19c0,12.8-6.2,18.5-17.1,18.5h-19.9c-4.6,0-6.7,0.8-6.7,3.6
		c0,1.2,0.4,2.1,1,3c0.3,0.3,0.4,0.5,0.4,0.6c0,0.2-0.2,0.4-0.4,0.5c-0.1,0.1-0.3,0.1-0.4,0.1C367.7,369.2,367.3,369,366.9,368.6z
		 M391,352.8c-1.1-3-2.2-7.9-3.1-12.3c-1.3-6.9-4.7-9.9-10.5-9.9c-4.8,0-7.8,3.3-7.8,9.7c0,5.2,2.9,11,6,12.5L391,352.8L391,352.8z"
		/>
	<path d="M364.2,400.6c0-5.1,1.8-10.3,5.2-13h-14.5c-2.4,0-4.6,0.7-5,5.7c-0.1,0.6-0.2,1-0.8,1c-0.5,0-0.7-0.3-0.7-0.8v-19.6
		c0-0.6,0.2-0.8,0.7-0.8s0.7,0.2,0.8,0.7c0.6,4.6,2.6,5.2,5,5.2h48.8c2.3,0,2.6-0.3,2.6-4.9c0-0.6,0.4-1,1-1c0.4,0,0.8,0.3,0.9,0.7
		c0.6,4.4,2,9.7,3.1,13c0,0.1,0,0.1,0,0.2c0,0.4-0.4,0.6-1,0.6h-4.6c3.5,2.6,5.7,7.7,5.7,13.5c0,12.6-9.3,20.7-23.6,20.7
		C373.3,421.7,364.2,412.8,364.2,400.6z M406.9,397.7c0-4.6-2.4-8.7-6.8-10.5H381c-7.8,0-12.9,5.7-12.9,12.8
		c0,7.4,5.1,12.7,16.5,12.7C400.6,412.6,406.9,406.6,406.9,397.7z"/>
	<path d="M365.1,479.4v-18.7c0-0.5,0.2-0.8,0.7-0.8s0.7,0.2,0.8,0.7c0.4,4.4,2.3,4.8,5,4.8h21.9c9.2,0,13-4.8,13-9.1
		c0-5.2-2.6-9.6-6.3-12.7c-0.2,0-28.6,0-28.6,0c-2.9,0-4.6,0.4-5,4.8c-0.1,0.5-0.3,1-0.8,1s-0.7-0.3-0.7-0.8v-18.7
		c0-0.8,0.2-0.8,0.7-0.8s0.7,0.2,0.8,0.7c0.4,4.6,2.3,5.2,5,5.2H425c2.3,0,2.6-0.3,2.6-4.9c0-0.6,0.4-1,0.9-1c0.4,0,0.7,0.3,0.8,0.7
		c0.7,4.3,1.9,8.4,3.4,12.9c0,0.1,0,0.2,0,0.2c0,0.4-0.4,0.6-1,0.6h-27.3c4.6,4.4,7,10.2,7,15.1c0,9.9-6.5,15.5-17.5,15.5h-22.2
		c-2.7,0-4.6,0.6-5,5.2c0,0.4-0.3,0.7-0.8,0.7S365.1,479.9,365.1,479.4z"/>
	<path d="M391.1,551.7c0-5.4,0.9-11.8,2-15.6h-22.2c-2.4,0-3.6,2.4-4.2,7.8c0,0.3-0.3,0.7-0.8,0.7s-0.7-0.3-0.7-0.8v-23.3
		c0-0.5,0.2-0.8,0.7-0.8s0.7,0.2,0.8,0.7c0.5,5,1.8,6.4,4.2,6.4h54.6c2.7,0,3.9-1.7,4.5-6.4c0-0.4,0.1-0.7,0.8-0.7
		c0.6,0,0.7,0.3,0.7,0.8c0,12.5,0.3,21.5,0.4,31.1c0,0.2,0,0.4,0,0.4c0,14.6-8.1,23-19.7,23C398.7,575,391.1,567,391.1,551.7z
		 M428.8,548.4c0-2-0.1-10.2-0.6-12.3h-29.7c-2,0-4,6.9-4,14.8c0,8.7,6.7,15.1,17.4,15.1C422.2,566,428.8,559,428.8,548.4z"/>
	<path d="M364.2,606c0-13.4,9.3-23.2,23.6-23.2c14.3,0,23.7,9.6,23.7,23.2c0,13.7-9.4,23.3-23.7,23.3
		C373.4,629.2,364.2,619.7,364.2,606z M407.8,604.8c0-7.8-5.6-12.7-16.8-12.7c-14,0-23.3,5.4-23.3,15.4c0,7.8,6.1,12.6,17,12.6
		C399.5,620,407.8,613.2,407.8,604.8z"/>
	<path d="M365.1,657.2v-19.5c0-0.6,0.2-0.8,0.7-0.8s0.7,0.2,0.8,0.7c0.4,4.9,2.3,5.3,5,5.3H425c2.3,0,2.6,0,2.6-4.9
		c0-0.7,0.4-1.1,0.9-1.1c0.4,0,0.7,0.3,0.8,0.8c0.6,3.9,2.1,9.9,3.4,13.6c0,0.1,0,0.1,0,0.2c0,0.3-0.4,0.4-1,0.4h-60.1
		c-2.7,0-4.6,0.6-5,5.5c0,0.4-0.3,0.7-0.8,0.7S365.1,657.9,365.1,657.2z"/>
	<path d="M388.1,706.5l-2.7-32.2c-11.6,1.3-17,8.4-17,16.2c0,5.8,2.3,10.6,7,14c0.3,0.2,0.4,0.5,0.4,0.8s0,0.4-0.2,0.7
		c-0.3,0.3-0.5,0.4-0.9,0.4c-0.1,0-0.3,0-0.4-0.1c-6.6-2.9-10.2-9.1-10.2-17.9c0-14.4,9.5-23,23.7-23c14.5,0,23.6,9.3,23.6,22
		c0,11.1-8.3,20.1-20.9,20.1C388.7,707.5,388.2,707.4,388.1,706.5z M408.2,686.5c0-7.5-5.8-12.6-17.6-12.6c-0.8,0-1.2,0-1.9,0
		l2.7,24.7c0,0.5,0.4,0.5,1,0.5C399.7,699.2,408.2,695.2,408.2,686.5z"/>
</g>
<g>
	<path d="M310.1,117.4c-1.4,0-2.5,0-3.9-0.4c-1.8-0.4-3.2-0.4-4.6-0.4c-14.3,0-21.8,10.3-36,21c-1.1,0.7-1.8,1.1-2.9,1.1
		c-1.4,0-2.1-1.1-2.1-2.5c0-0.4,0-1.1,0.4-1.8c5-12.8,8.6-23.2,12.1-35.7H172.4c0,21.8,0.4,46,1.1,69.9c0,0.4,0,0.7,0,1.1
		c0,10.3-5,12.5-18.2,13.6c-1.1,0-1.8,0-2.9,0c-11.1,0-13.2-3.9-13.2-12.5c0-0.7,0-1.4,0-2.1c0.7-23.2,1.4-47.4,1.4-69.9H42.9
		c1.1,5,1.8,10.3,1.8,15.3c0,12.5-3.6,24.3-13.6,32.5c-4.6,3.6-9.3,5.4-13.9,5.4c-8.6,0-16.1-6.4-16.1-15.7c0-2.9,0.7-6.1,2.5-9.6
		c7.9-16.5,23.6-12.9,27.5-46.4c0.4-3.2,1.4-5,2.9-5s2.9,1.4,3.9,5c1.1,3.2,2.5,7.1,3.2,10.7h99.5c0-2.9,0-5.4,0-8.2
		c0-6.1,0-12.1-0.4-17.8H72.9c-12.1,0-22.1,0.7-30.7,2.5c-0.4,0-0.7,0-1.1,0c-2.1,0-3.6-0.7-4.6-2.9c-1.4-2.5-2.9-5.4-3.6-8.9
		c-0.4-0.7-0.4-1.4-0.4-2.1c0-0.7,0.4-1.1,1.1-1.1c0.7,0,1.4,0.4,2.9,0.7c8.2,2.5,23.5,3.9,36.4,3.9h161.2c2.1,0,3.9-1.1,5.4-2.5
		c5-5.4,10.3-11.1,16.1-17.5c1.8-2.1,3.2-2.1,6.1,0c9.3,6.4,20.3,14.6,28.2,21.4c1.4,1.4,2.1,2.5,2.1,3.6c0,1.8-1.8,2.9-4.6,2.9
		H172.8c0,7.8-0.4,16.8-0.4,26h93.1c2.9,0,4.3-0.4,6.4-2.5c2.9-2.5,7.8-7.1,10.7-9.6c1.4-1.4,2.1-1.8,3.2-1.8c0.7,0,1.8,0.7,3.6,1.8
		c7.5,5.4,18.2,14.3,26.4,21.8c3.6,2.9,5,6.4,5,9.3C320.8,114.2,317.2,117.4,310.1,117.4z M124.6,165.2H72.2
		c-8.9,0-18.9,0.7-23.5,1.8c-0.4,0-0.7,0-1.1,0c-1.4,0-2.5-0.4-3.2-2.1c-1.4-2.5-2.5-5-3.6-7.8c-0.7-2.5,0.4-3.2,3.2-2.1
		c5.7,2.1,18.2,3.2,27.8,3.2h19.6c1.8,0,3.2-0.7,4.6-2.1c2.9-3.6,5.4-6.4,8.6-10.3c0.7-0.7,1.4-1.1,1.8-1.1c1.1,0,1.8,0.4,2.9,1.1
		c5.4,3.9,12.8,10.7,16.8,14.6c1.4,1.1,1.8,2.1,1.8,2.9C127.8,164.5,126.4,165.2,124.6,165.2z M295.5,339.2
		c-12.8,2.1-42.5,3.6-71,3.6c-21,0-41.7-0.7-54.6-2.1c-20.7-1.4-31.4-6.8-31.4-28.5c0-0.4,0-0.7,0-1.1c0-8.9,0.4-17.5,0.4-26H77.2
		c0,2.1,0,4.3,0,6.4c0,0.4,0,0.7,0,1.1c0,8.6-5,10.7-16.8,11.4c-1.4,0-2.9,0-4.3,0c-7.5,0-11.8-1.8-11.8-8.9c0-0.7,0-1.1,0-1.8
		c1.4-18.5,2.1-42.4,2.1-63.5s-0.7-39.2-2.9-45.7c-1.1-2.9-1.4-4.6-1.4-6.1c0-1.4,0.4-1.8,1.4-1.8c0.7,0,1.8,0.4,2.9,0.7
		c9.6,3.9,35,15.3,35,15.3h147.7c3.2,0,4.3-0.4,6.1-2.1c3.9-3.9,7.8-7.5,12.8-12.1c1.1-1.1,2.1-1.8,3.2-1.8c1.4,0,2.5,0.7,4.3,1.8
		c6.4,4.3,13.2,9.6,21,14.6c2.5,1.8,3.9,3.9,3.9,5.7c0,2.1-1.4,4.3-4.3,5.7c-6.8,3.2-7.5,3.9-7.8,9.6c-0.4,7.5-1.1,18.9-1.1,33.5
		c0,10,0.4,21.8,1.1,35c0,0.4,0,1.1,0,1.4c0,8.9-7.1,10.7-17.1,11.4c-1.1,0-2.5,0-3.6,0c-7.5,0-11.4-1.4-11.4-8.9c0-0.4,0-0.7,0-1.1
		h-66c0.4,5.7,0.4,11.8,0.4,16.8c0,8.9,1.8,11.1,12.1,12.1c7.5,1.1,20.7,1.4,34.6,1.4c19.3,0,40.3-0.7,52.4-1.8
		c18.2-2.1,20-3.6,30.7-50.7c0.7-2.9,2.1-3.9,3.2-3.9c1.4,0,2.9,1.8,2.9,4.6c0,3.9,0,7.1,0,10.3c0,32.5,0.4,30,7.1,35
		c3.9,2.9,6.4,7.1,6.4,11.4C320.1,327.8,313.3,336,295.5,339.2z M124.6,132.3h-41c-9.3,0-19.3,0.7-23.5,1.8c-0.7,0-1.1,0-1.4,0
		c-1.4,0-2.5-0.4-3.2-2.1c-1.4-2.5-2.5-4.6-3.2-7.8c-0.4-0.7-0.4-1.1-0.4-1.4c0-0.7,0.4-1.1,1.1-1.1c0.4,0,1.1,0.4,2.1,0.7
		c7.1,2.1,18.5,2.9,27.8,2.9h8.6c1.8,0,3.2-0.7,4.6-2.1c2.9-3.6,5.4-6.8,8.6-10.7c1.4-1.4,2.5-1.4,4.6,0
		c5.4,4.3,12.8,10.7,16.8,14.6c1.4,1.1,1.8,2.1,1.8,3.2S126.4,132.3,124.6,132.3z M138.5,200.5h-61c0,9.3-0.4,20-0.4,32.1h62.1
		C139.2,221.9,138.9,210.8,138.5,200.5z M77.2,240.4c0,7.5,0,15.3,0,23.9c0,4.3,0,8.6,0,12.8h61.7c0-12.5,0.4-25,0.4-36.7
		L77.2,240.4L77.2,240.4z M236.2,200.5h-65.6c0,10.3-0.4,21.4-0.4,32.1h66.7C237,221.2,236.6,210.5,236.2,200.5z M170.3,240.4
		c0,12.8,0,25.3,0,36.7h66.4c0.4-13.2,0.4-25.3,0.4-36.7L170.3,240.4L170.3,240.4z M257.3,132.3h-40c-9.3,0-19.3,0.7-23.9,1.8
		c-0.4,0-0.7,0-1.1,0c-1.4,0-2.5-0.4-3.2-2.1c-1.4-2.5-2.5-4.6-3.6-7.8c0-0.7-0.4-1.1-0.4-1.4c0-0.7,0.4-1.1,1.1-1.1
		c0.7,0,1.4,0.4,2.5,0.7c7.1,2.1,18.2,2.9,27.8,2.9h7.5c2.1,0,3.6-0.7,4.6-2.1c2.9-3.6,5.4-6.8,8.9-10.7c1.1-1.4,2.5-1.4,4.3,0
		c5.4,4.3,12.8,10.7,17.1,14.6c1.1,1.1,1.4,2.1,1.4,2.9C260.5,131.3,259.4,132.3,257.3,132.3z M276.9,165.2h-59.2
		c-9.3,0-19.3,0.7-23.9,1.8c-0.4,0-0.7,0-1.1,0c-1.4,0-2.5-0.4-3.2-2.1c-1.4-2.5-2.5-5-3.6-7.8c0-0.7-0.4-1.1-0.4-1.4
		c0-1.4,1.1-1.4,3.6-0.7c6.1,2.1,18.2,3.2,27.8,3.2h27.2c1.8,0,3.2-0.7,4.6-2.1c2.9-3.6,5.4-6.4,8.6-10.3c0.7-0.7,1.4-1.1,1.8-1.1
		c1.1,0,1.8,0.4,2.9,1.1c5.4,3.9,12.8,10.7,16.8,14.6c1.1,1.1,1.8,2.1,1.8,2.9C280.5,164.5,279.1,165.2,276.9,165.2z"/>
	<path d="M316.9,689.4H151.3c-11.8,0-25,0.7-30.7,2.1c-0.7,0-1.4,0.4-1.8,0.4c-1.8,0-2.9-1.1-3.9-2.9c-1.4-2.5-2.9-5.7-3.9-8.9
		c0-0.7-0.4-1.4-0.4-1.8c0-1.1,0.4-1.4,1.4-1.4c0.7,0,1.4,0,2.5,0.4c8.2,2.9,23.9,3.9,36.7,3.9h44.6c0.4-37.1,0.7-74.9,1.1-110.6
		h-22.8c-12.1,0-25.3,0.7-31,2.1c-0.4,0-1.1,0-1.4,0c-1.8,0-3.2-0.4-4.3-2.5c-1.1-2.5-2.9-5.7-3.9-8.9c-0.7-2.5-0.4-3.2,1.1-3.2
		c0.7,0,1.8,0,2.9,0.4c8.2,2.9,23.9,3.9,36.7,3.9H197c0.4-31.4,0-61-1.1-87.4h-60.6c0.4,0.7,0.4,1.1,0.4,1.4c0,1.8-1.4,2.5-4.3,2.5
		H85.7c0,6.8,0,13.9,0,21.4c22.1,12.8,40.7,27.5,41.7,45.7c0,0.4,0,0.4,0,0.7c0,11.1-7.1,16.8-14.3,16.8c-5.4,0-10.3-3.2-11.8-10.7
		c-2.9-16.1-3.2-27.8-15.7-44.6c0,62.1,0.4,140.9,1.8,188c0,0.4,0,0.7,0,1.1c0,7.5-4.6,10-18.2,10.3c-1.4,0-2.9,0-4.3,0
		c-8.9,0-12.8-2.1-12.8-9.6c0-0.4,0-0.7,0-1.1c1.4-33.5,2.1-87.8,2.5-140.2c-12.1,24.6-32.5,53.2-50.3,71c-0.7,0.7-1.8,1.1-2.5,1.1
		c-1.1,0-1.8-0.7-1.8-1.8c0-0.7,0.4-1.4,1.1-2.5c20.7-36,40.3-83.1,51.7-145.5h-7.5c-10.7,0-25,0.7-30.7,2.5c-0.4,0-1.1,0-1.4,0
		c-1.8,0-3.2-0.4-4.3-2.5c-1.4-2.5-2.9-6.1-3.6-9.3c-0.2-1.1-0.2-1.8-0.2-2.2c0-0.7,0.4-1.1,1.1-1.1s1.8,0,2.9,0.4
		c8.2,2.9,25,3.9,36.4,3.9h9.3c0-36-0.7-62.4-1.4-66.3c-0.7-5.7-1.4-8.6-1.4-10.3c0-1.4,0.4-1.8,1.8-1.8c0.7,0,1.8,0.4,3.2,0.4
		c8.9,1.1,22.5,3.2,36.4,6.1c4.3,1.1,6.8,3.2,6.8,5.4c0,2.1-2.5,4.6-7.1,6.1c-5.4,1.4-6.1,4.6-6.1,8.6c-0.4,7.8-0.7,27.1-0.7,52.1
		h3.9c0.7,0,1.1,0,1.8,0c1.4-0.4,2.9-1.1,3.6-2.1c3.2-5.7,8.2-13.9,11.4-18.5c0.7-1.1,1.8-1.4,2.9-1.4s2.5,0.4,3.6,1.4
		c4.6,4.3,10.7,10.7,15.7,16.8h122c2.1,0,3.9-0.4,5.7-2.1c3.9-4.6,12.1-15.7,17.8-22.5c1.1-1.1,1.8-1.8,2.9-1.8s2.1,0.7,3.6,1.8
		c8.2,6.1,22.8,18.9,30,26.4c1.4,1.4,2.1,2.9,2.1,3.9c0,1.4-1.8,2.5-4.6,2.5h-76.3c-0.7,26.4-1.1,56-1.1,87.4h13.9
		c2.5,0,4.3-0.4,6.1-2.5c3.9-5,11.1-14.6,16.1-20.7c0.7-1.1,1.8-1.8,2.9-1.8s2.1,0.7,3.6,1.8c7.5,5.7,21.8,17.5,29.3,25
		c1.1,1.1,1.8,2.5,1.8,3.6c0,1.4-1.4,2.9-4.6,2.9h-68.8c0,35.7,0.4,73.5,1.1,110.6h26c2.9,0,4.6,0,6.4-2.5
		c4.3-5.7,11.8-16.8,17.1-23.5c0.7-1.1,1.4-1.8,2.5-1.8s2.1,0.7,3.6,1.8c8.9,7.1,24.6,20.7,32.1,27.8c1.1,1.1,1.8,2.5,1.8,3.6
		C321.5,687.9,320.1,689.4,316.9,689.4z M216.6,460c-5.7,0-11.8-2.9-16.4-10c-7.8-11.8-8.6-29.6-39.6-47.1c-1.8-1.1-2.9-2.5-2.9-3.9
		c0-1.1,1.1-2.1,3.6-2.1c0.4,0,0.7,0,1.1,0c36.7,3.6,59.9,17.1,67.8,31c2.5,4.6,3.6,8.9,3.6,13.2C233.8,452.2,225.9,460,216.6,460z"
		/>
</g>
</svg>
