<?xml version="1.0" encoding="utf-8"?>
<!-- Generator: Adobe Illustrator 27.2.0, SVG Export Plug-In . SVG Version: 6.00 Build 0)  -->
<svg version="1.1" xmlns="http://www.w3.org/2000/svg" xmlns:xlink="http://www.w3.org/1999/xlink" x="0px" y="0px"
	 viewBox="0 0 631.5 631.5" style="enable-background:new 0 0 631.5 631.5;" xml:space="preserve">
<style type="text/css">
	.st13{fill:#3178C6;}
	.st14{fill-rule:evenodd;clip-rule:evenodd;fill:#FFFFFF;}
</style>
<g id="レイヤー_1">
</g>
<g id="レイヤー_6">
	<path class="st13" d="M61.7,0h508.2c34.1,0,61.7,27.6,61.7,61.7v508.2c0,34.1-27.6,61.7-61.7,61.7H61.7C27.6,631.5,0,603.9,0,569.8
		V61.7C0,27.6,27.6,0,61.7,0z"/>
	<path class="st14" d="M390.9,502.5v61.7c10,5.1,21.9,9,35.6,11.6s28.2,3.9,43.3,3.9c14.8,0,28.9-1.4,42.2-4.2c13.3-2.8,25-7.5,35-14
		c10-6.5,18-15,23.8-25.5s8.8-23.4,8.8-38.9c0-11.2-1.7-21-5-29.4c-3.3-8.4-8.2-15.9-14.5-22.5c-6.3-6.6-13.9-12.4-22.7-17.7
		c-8.8-5.2-18.8-10.1-29.8-14.8c-8.1-3.3-15.4-6.6-21.8-9.7c-6.4-3.2-11.9-6.4-16.4-9.6c-4.5-3.3-8-6.8-10.4-10.4
		c-2.4-3.7-3.7-7.8-3.7-12.4c0-4.2,1.1-8.1,3.3-11.5c2.2-3.4,5.3-6.3,9.3-8.8c4-2.4,8.9-4.3,14.7-5.7c5.8-1.4,12.2-2,19.3-2
		c5.1,0,10.6,0.4,16.3,1.2c5.7,0.8,11.5,2,17.3,3.6c5.8,1.6,11.4,3.6,16.9,6.1c5.5,2.4,10.5,5.3,15.2,8.5v-57.7
		c-9.4-3.6-19.7-6.3-30.8-8c-11.1-1.7-23.9-2.6-38.3-2.6c-14.7,0-28.6,1.6-41.7,4.7s-24.7,8.1-34.7,14.8
		c-10,6.7-17.9,15.2-23.6,25.6c-5.8,10.4-8.7,22.7-8.7,37.1c0,18.4,5.3,34.1,15.9,47.1c10.6,13,26.7,24,48.4,33
		c8.5,3.5,16.4,6.9,23.7,10.2c7.3,3.3,13.7,6.8,19,10.4c5.3,3.6,9.6,7.5,12.6,11.8c3.1,4.2,4.6,9.1,4.6,14.5c0,4-1,7.7-2.9,11.1
		c-1.9,3.4-4.9,6.4-8.8,8.9c-3.9,2.5-8.8,4.5-14.7,5.9c-5.9,1.4-12.7,2.1-20.6,2.1c-13.4,0-26.6-2.3-39.8-7
		C414.3,519,402.1,511.9,390.9,502.5L390.9,502.5z M287.1,350.4h79.2v-50.7H145.5v50.7h78.8V576h62.7V350.4z"/>
</g>
</svg>
