<?xml version="1.0" encoding="utf-8"?>
<!-- Generator: Adobe Illustrator 27.3.1, SVG Export Plug-In . SVG Version: 6.00 Build 0)  -->
<svg version="1.1" id="レイヤー_1" xmlns="http://www.w3.org/2000/svg" xmlns:xlink="http://www.w3.org/1999/xlink" x="0px"
	 y="0px" viewBox="0 0 1422.6 97.8" style="enable-background:new 0 0 1422.6 97.8;" xml:space="preserve">
<style type="text/css">
	.st0{fill:#FFFFFF;}
	.st1{fill:url(#SVGID_1_);}
	.st2{fill:url(#SVGID_00000060019978921270814810000007343995265439395970_);}
	.st3{fill:url(#SVGID_00000151532116763498237000000015340768110052836012_);}
	.st4{fill:url(#SVGID_00000002358298784952863860000002998294148934811021_);}
</style>
<rect class="st0" width="1422.6" height="97.8"/>
<g>
	
		<linearGradient id="SVGID_1_" gradientUnits="userSpaceOnUse" x1="1069.2365" y1="997.4533" x2="1069.2365" y2="1067.2778" gradientTransform="matrix(1 0 0 1 0 -980.1178)">
		<stop  offset="0" style="stop-color:#9E78B4"/>
		<stop  offset="1" style="stop-color:#D374A8"/>
	</linearGradient>
	<path class="st1" d="M1421.3,38.6c-1.3-1.7-3.3-2.8-5.4-2.8h-55.5l5.2-15.9c0.7-2,0.3-4.3-0.9-6c-1.3-1.7-3.3-2.8-5.4-2.8h-30.1
		c-0.1-1.3-0.5-2.5-1.3-3.5c-1.3-1.7-3.3-2.8-5.4-2.8h-19.9c-2.9,0-5.5,1.9-6.4,4.6l-0.5,1.7h-8.8c-2.9,0-5.5,1.9-6.4,4.6l-6.1,18.9
		c-0.1,0.4-0.2,0.8-0.3,1.3c-0.4-0.1-0.8-0.1-1.2-0.1h-14.6c-0.1-1.1-0.6-2.1-1.2-3c-1.3-1.7-3.3-2.8-5.4-2.8h-12.6
		c-0.5,0-1.1,0.1-1.6,0.2c-0.5-0.1-1-0.2-1.6-0.2h-12.6c-2.9,0-5.5,1.9-6.4,4.6l-0.8,2.4c-1.1-0.8-2.4-1.2-3.8-1.2h-45.1
		c-1.3,0-2.5,0.4-3.5,1l5.5-16.9c0.7-2,0.3-4.3-0.9-6s-3.3-2.8-5.4-2.8H1097c-1.7,0-3.4,0.7-4.6,1.8c-1.2-1.1-2.8-1.8-4.6-1.8h-17.5
		c-0.1-1.3-0.5-2.5-1.3-3.5c-1.3-1.7-3.3-2.8-5.4-2.8h-19.9c-2.9,0-5.5,1.9-6.4,4.6l-0.5,1.7h-21.4c-2.9,0-5.5,1.9-6.4,4.6
		l-6.5,20.1c-0.3-0.1-0.7-0.1-1.1-0.1H950c-1.1,0-2.1,0.3-3,0.7c-0.9-0.5-1.9-0.7-3-0.7h-19.9c-2.1,0-4,1-5.3,2.6l6-18.5
		c0.7-2,0.3-4.3-0.9-6s-3.3-2.8-5.4-2.8h-38.8c-1.1,0-2.1,0.3-3,0.7c-0.9-0.4-1.9-0.7-2.9-0.7c-0.8,0-1.6,0.1-2.3,0.4L811,34l4.6-14
		c0.7-2,0.3-4.3-0.9-6s-3.3-2.8-5.4-2.8h-43.8c-0.1-1.3-0.5-2.5-1.3-3.5c-1.3-1.8-3.3-2.8-5.4-2.8h-19.9c-2.9,0-5.5,1.9-6.4,4.6
		l-16.2,49.8c-0.7,2-0.3,4.3,0.9,6c1.2,1.7,3.3,2.8,5.4,2.8h19.9c2.9,0,5.5-1.9,6.4-4.6l6.5-20h4.9l-13.2,40.6c-0.7,2-0.3,4.3,0.9,6
		s3.3,2.8,5.4,2.8h19.9c2.9,0,5.5-1.9,6.4-4.6l14.5-44.7h5.5l-7,21.7c-0.8,2.4-0.1,5.1,1.7,6.9c1.3,1.2,2.9,1.9,4.6,1.9
		c0.8,0,1.6-0.1,2.3-0.4l9.1-3.4L806,84c-0.7,2-0.3,4.3,0.9,6c1.3,1.7,3.3,2.8,5.4,2.8h19.9c2.9,0,5.5-1.9,6.4-4.6l10.5-32.3
		l12.8-4.7l-2.7,8.3c-0.3,1-0.4,2.1-0.2,3.1c-0.7,0.7-1.3,1.6-1.6,2.7l-6.1,18.9c-0.7,2-0.3,4.3,0.9,6s3.3,2.8,5.4,2.8H930
		c1.1,0,2.1-0.3,3-0.7c0.9,0.5,1.9,0.7,3,0.7h51.4c2.9,0,5.5-1.9,6.4-4.6l6.5-20.1c0.3,0.1,0.7,0.1,1.1,0.1h19.9
		c2.9,0,5.5-1.9,6.4-4.6l6.5-20h18.5l-13.2,40.6c-0.7,2-0.3,4.3,1,6s3.3,2.8,5.4,2.8h19.9c2.9,0,5.5-1.9,6.4-4.6l6.5-20.1
		c0.4,0.1,0.7,0.1,1.1,0.1h4.4l-5.2,15.9c-0.7,2-0.3,4.3,0.9,6c1.3,1.7,3.3,2.8,5.4,2.8h32.5c2.9,0,5.5-1.9,6.4-4.6l6.5-20h18.2
		l-5.2,15.9c-0.7,2-0.3,4.3,0.9,6c1.3,1.7,3.3,2.8,5.4,2.8h51.3c2.9,0,5.5-1.9,6.4-4.6l6.1-18.9c0.1-0.4,0.2-0.8,0.3-1.3
		c0.4,0.1,0.8,0.1,1.2,0.1h12.6c0.5,0,1.1-0.1,1.6-0.2c0.5,0.1,1,0.2,1.6,0.2h6.5l-5.2,15.9c-0.7,2-0.3,4.3,0.9,6
		c1.3,1.7,3.3,2.8,5.4,2.8h19.9c2.9,0,5.5-1.9,6.4-4.6l14.1-43.5c0.1-0.4,0.2-0.8,0.3-1.3c0.4,0.1,0.8,0.1,1.2,0.1h4.4l-13.2,40.6
		c-0.7,2-0.3,4.3,0.9,6c1.3,1.7,3.3,2.8,5.4,2.8h19.9c1.1,0,2.2-0.3,3.1-0.8c1,0.5,2,0.8,3.1,0.8h32.5c2.9,0,5.5-1.9,6.4-4.6
		l6.5-20.1c0.4,0.1,0.7,0.1,1.1,0.1h58.8c2.9,0,5.5-1.9,6.4-4.6l6.1-18.9C1422.9,42.6,1422.6,40.3,1421.3,38.6z M917.3,42.3
		c0-0.3,0-0.6-0.1-0.8c0.2-0.2,0.4-0.4,0.6-0.6L917.3,42.3z M1159.4,60.5l0.2-0.5c0.3,0.2,0.5,0.4,0.8,0.5H1159.4z M1318.4,60.5
		h-4.8l5.5-17.1h4.8L1318.4,60.5z"/>
	
		<linearGradient id="SVGID_00000111879794406246606390000005656420174585788315_" gradientUnits="userSpaceOnUse" x1="1069.35" y1="995.3351" x2="1069.35" y2="1061.4603" gradientTransform="matrix(1 0 0 1 0 -980.1178)">
		<stop  offset="0" style="stop-color:#FFFFFF"/>
		<stop  offset="1" style="stop-color:#FEE1F7"/>
	</linearGradient>
	<path style="fill:url(#SVGID_00000111879794406246606390000005656420174585788315_);" d="M803.1,36.8h-13.6l-16,49.3h-19.9l16-49.3
		h-18.9l-8,24.7h-19.9L739,11.7h19.9l-2,6.3h52.5L803.1,36.8z M865.9,42.5l-22.1,8.1L832.3,86h-19.9l8.8-27l-22.1,8.1l8-24.7
		l66.8-24.5L865.9,42.5z M944.2,42.5L930,86.1h-72.4l6.1-18.9h52.5l8-24.7C924.2,42.5,944.2,42.5,944.2,42.5z M904.5,61.4h-38.8
		l6.1-18.9h38.8L904.5,61.4z M912.5,36.8h-38.8l6.1-18.9h38.8L912.5,36.8z M987.3,86.1H936l3.9-12.1h31.5l1.2-3.7h-28.3l3.9-12.1
		h28.3l1.2-3.7h-31.5l3.9-12.1h51.4L987.3,86.1z M1065.7,86.1h-19.9l16-49.3h-32.5l-8,24.7h-19.9l14.1-43.5h26.2l2-6.3h19.9l-2,6.3
		h26.2L1065.7,86.1z M1132,42.5h26.2l-6.1,18.9h-26.2l-8,24.7h-32.5l6.1-18.9h12.6l1.9-5.8h-26.2l6.1-18.9h26.2l1.9-5.8h-23.1
		l6.1-18.8h66.1l-6.1,18.9h-23.1L1132,42.5z M1191.8,54.6l-4.1,12.6h19.9l-6.1,18.9h-51.3l6.1-18.9h18.9l4.1-12.6h-15.7l3.9-12.1
		h45.1l-3.9,12.1C1208.7,54.6,1191.8,54.6,1191.8,54.6z M1236,36.8l-8,24.7h-12.6l8-24.7H1236z M1251.7,36.8l-8,24.7h-12.6l8-24.7
		H1251.7z M1272.9,42.5L1258.8,86h-19.9l14.1-43.5H1272.9z M1337,86.1h-32.5l6.1-18.9h12.6l9.9-30.4h-18.9l-16,49.3h-19.9l16-49.3
		h-13.6l6.1-18.9h13.6l2-6.3h19.9l-2,6.3h38.8L1337,86.1z M1415.9,42.5l-6.1,18.9H1351l6.1-18.9H1415.9z"/>
</g>
<g>
	
		<linearGradient id="SVGID_00000078767105164536243760000016873738069232157862_" gradientUnits="userSpaceOnUse" x1="353.281" y1="997.4533" x2="353.281" y2="1067.2778" gradientTransform="matrix(1 0 0 1 0 -980.1178)">
		<stop  offset="0" style="stop-color:#9E78B4"/>
		<stop  offset="1" style="stop-color:#D374A8"/>
	</linearGradient>
	<path style="fill:url(#SVGID_00000078767105164536243760000016873738069232157862_);" d="M705.3,38.6c-1.3-1.7-3.3-2.8-5.4-2.8
		h-55.5l5.2-15.9c0.7-2,0.3-4.3-0.9-6c-1.3-1.7-3.3-2.8-5.4-2.8h-30.1c-0.1-1.3-0.5-2.5-1.3-3.5c-1.3-1.7-3.3-2.8-5.4-2.8h-19.9
		c-2.9,0-5.5,1.9-6.4,4.6l-0.5,1.7h-8.8c-2.9,0-5.5,1.9-6.4,4.6l-6.1,18.9c-0.1,0.4-0.2,0.8-0.3,1.3c-0.4-0.1-0.8-0.1-1.2-0.1h-14.6
		c-0.1-1.1-0.6-2.1-1.2-3c-1.3-1.7-3.3-2.8-5.4-2.8h-12.6c-0.5,0-1.1,0.1-1.6,0.2c-0.5-0.1-1-0.2-1.6-0.2h-12.6
		c-2.9,0-5.5,1.9-6.4,4.6l-0.8,2.4c-1.1-0.8-2.4-1.2-3.8-1.2h-45.1c-1.3,0-2.5,0.4-3.5,1l5.5-16.9c0.7-2,0.3-4.3-0.9-6
		s-3.3-2.8-5.4-2.8H381c-1.7,0-3.4,0.7-4.6,1.8c-1.2-1.1-2.8-1.8-4.6-1.8h-17.5c-0.1-1.3-0.5-2.5-1.3-3.5c-1.3-1.7-3.3-2.8-5.4-2.8
		h-19.9c-2.9,0-5.5,1.9-6.4,4.6l-0.5,1.7h-21.4c-2.9,0-5.5,1.9-6.4,4.6l-6.5,20.1c-0.3-0.1-0.7-0.1-1.1-0.1H234
		c-1.1,0-2.1,0.3-3,0.7c-0.9-0.5-1.9-0.7-3-0.7h-19.9c-2.1,0-4,1-5.3,2.6l6-18.5c0.7-2,0.3-4.3-0.9-6s-3.3-2.8-5.4-2.8h-38.8
		c-1.1,0-2.1,0.3-3,0.7c-0.9-0.4-1.9-0.7-2.9-0.7c-0.8,0-1.6,0.1-2.3,0.4L95,34l4.6-14c0.7-2,0.3-4.3-0.9-6s-3.3-2.8-5.4-2.8H49.5
		c-0.1-1.3-0.5-2.5-1.3-3.5c-1.3-1.8-3.3-2.8-5.4-2.8H22.9c-2.9,0-5.5,1.9-6.4,4.6L0.3,59.3c-0.7,2-0.3,4.3,0.9,6
		c1.2,1.7,3.3,2.8,5.4,2.8h19.9c2.9,0,5.5-1.9,6.4-4.6l6.5-20h4.9L31.1,84.1c-0.7,2-0.3,4.3,0.9,6c1.2,1.7,3.3,2.8,5.4,2.8h19.9
		c2.9,0,5.5-1.9,6.4-4.6l14.5-44.7h5.5l-7,21.7c-0.8,2.4-0.1,5.1,1.7,6.9c1.3,1.2,2.9,1.9,4.6,1.9c0.8,0,1.6-0.1,2.3-0.4l9.1-3.4
		L90,84c-0.7,2-0.3,4.3,0.9,6c1.3,1.7,3.3,2.8,5.4,2.8h19.9c2.9,0,5.5-1.9,6.4-4.6l10.5-32.3l12.8-4.7l-2.7,8.3
		c-0.3,1-0.4,2.1-0.2,3.1c-0.7,0.7-1.3,1.6-1.6,2.7l-6.1,18.9c-0.7,2-0.3,4.3,0.9,6s3.3,2.8,5.4,2.8H214c1.1,0,2.1-0.3,3-0.7
		c0.9,0.5,1.9,0.7,3,0.7h51.4c2.9,0,5.5-1.9,6.4-4.6l6.5-20.1c0.3,0.1,0.7,0.1,1.1,0.1h19.9c2.9,0,5.5-1.9,6.4-4.6l6.5-20h18.5
		l-13.2,40.6c-0.7,2-0.3,4.3,1,6s3.3,2.8,5.4,2.8h19.9c2.9,0,5.5-1.9,6.4-4.6l6.5-20.1c0.4,0.1,0.7,0.1,1.1,0.1h4.4L363,84.5
		c-0.7,2-0.3,4.3,0.9,6c1.3,1.7,3.3,2.8,5.4,2.8h32.5c2.9,0,5.5-1.9,6.4-4.6l6.5-20h18.2l-5.2,15.9c-0.7,2-0.3,4.3,0.9,6
		c1.3,1.7,3.3,2.8,5.4,2.8h51.3c2.9,0,5.5-1.9,6.4-4.6l6.1-18.9c0.1-0.4,0.2-0.8,0.3-1.3c0.4,0.1,0.8,0.1,1.2,0.1h12.6
		c0.5,0,1.1-0.1,1.6-0.2c0.5,0.1,1,0.2,1.6,0.2h6.5l-5.2,15.9c-0.7,2-0.3,4.3,0.9,6c1.3,1.7,3.3,2.8,5.4,2.8h19.9
		c2.9,0,5.5-1.9,6.4-4.6l14.1-43.5c0.1-0.4,0.2-0.8,0.3-1.3c0.4,0.1,0.8,0.1,1.2,0.1h4.4l-13.2,40.6c-0.7,2-0.3,4.3,0.9,6
		c1.3,1.7,3.3,2.8,5.4,2.8H582c1.1,0,2.2-0.3,3.1-0.8c1,0.5,2,0.8,3.1,0.8h32.5c2.9,0,5.5-1.9,6.4-4.6l6.5-20.1
		c0.4,0.1,0.7,0.1,1.1,0.1h58.8c2.9,0,5.5-1.9,6.4-4.6l6.1-18.9C706.9,42.6,706.6,40.3,705.3,38.6z M201.3,42.3c0-0.3,0-0.6-0.1-0.8
		c0.2-0.2,0.4-0.4,0.6-0.6L201.3,42.3z M443.4,60.5l0.2-0.5c0.3,0.2,0.5,0.4,0.8,0.5H443.4z M602.4,60.5h-4.8l5.5-17.1h4.8
		L602.4,60.5z"/>
	
		<linearGradient id="SVGID_00000100369245508886784450000000958538722637621632_" gradientUnits="userSpaceOnUse" x1="353.3946" y1="995.3351" x2="353.3946" y2="1061.4603" gradientTransform="matrix(1 0 0 1 0 -980.1178)">
		<stop  offset="0" style="stop-color:#FFFFFF"/>
		<stop  offset="1" style="stop-color:#FEE1F7"/>
	</linearGradient>
	<path style="fill:url(#SVGID_00000100369245508886784450000000958538722637621632_);" d="M87.1,36.8H73.5l-16,49.3H37.6l16-49.3
		H34.7l-8,24.7H6.8L23,11.7h19.9l-2,6.3h52.5L87.1,36.8z M149.9,42.5l-22.1,8.1L116.3,86H96.4l8.8-27l-22.1,8.1l8-24.7l66.8-24.5
		L149.9,42.5z M228.2,42.5L214,86.1h-72.4l6.1-18.9h52.5l8-24.7C208.2,42.5,228.2,42.5,228.2,42.5z M188.5,61.4h-38.8l6.1-18.9h38.8
		L188.5,61.4z M196.5,36.8h-38.8l6.1-18.9h38.8L196.5,36.8z M271.3,86.1H220l3.9-12.1h31.5l1.2-3.7h-28.3l3.9-12.1h28.3l1.2-3.7
		h-31.5l3.9-12.1h51.4L271.3,86.1z M349.7,86.1h-19.9l16-49.3h-32.5l-8,24.7h-19.9L299.5,18h26.2l2-6.3h19.9l-2,6.3h26.2L349.7,86.1
		z M416,42.5h26.2l-6.1,18.9h-26.2l-8,24.7h-32.5l6.1-18.9h12.6l1.9-5.8h-26.2l6.1-18.9h26.2l1.9-5.8h-23.1l6.1-18.8h66.1L441,36.8
		h-23.1L416,42.5z M475.8,54.6l-4.1,12.6h19.9l-6.1,18.9h-51.3l6.1-18.9h18.9l4.1-12.6h-15.7l3.9-12.1h45.1l-3.9,12.1
		C492.7,54.6,475.8,54.6,475.8,54.6z M520,36.8l-8,24.7h-12.6l8-24.7H520z M535.7,36.8l-8,24.7h-12.6l8-24.7H535.7z M556.9,42.5
		L542.8,86h-19.9L537,42.5H556.9z M621,86.1h-32.5l6.1-18.9h12.6l9.9-30.4h-18.9l-16,49.3h-19.9l16-49.3h-13.6l6.1-18.9h13.6l2-6.3
		h19.9l-2,6.3h38.8L621,86.1z M699.9,42.5l-6.1,18.9H635l6.1-18.9H699.9z"/>
</g>
</svg>
