<?xml version="1.0" encoding="utf-8"?>
<!-- Generator: Adobe Illustrator 27.2.0, SVG Export Plug-In . SVG Version: 6.00 Build 0)  -->
<svg version="1.1" id="レイヤー_1" xmlns="http://www.w3.org/2000/svg" xmlns:xlink="http://www.w3.org/1999/xlink" x="0px"
	 y="0px" viewBox="0 0 1444.7 564.1" style="enable-background:new 0 0 1444.7 564.1;" xml:space="preserve">
<style type="text/css">
	.st21{fill:#231815;}
</style>
<g>
	<path class="st21" d="M245.3,381.2l-2.8,0v0c-49.1,1.5-88.6,41.9-88.6,91.4c0,50.4,41,91.5,91.5,91.5c0,0,0,0,0,0
		c24.4,0,47.4-9.5,64.7-26.8c17.3-17.3,26.8-40.2,26.8-64.7C336.7,422.2,295.7,381.2,245.3,381.2z M245.3,545.2
		c-19.4,0-37.6-7.5-51.3-21.3c-13.7-13.7-21.3-31.9-21.3-51.3c0-40,32.6-72.5,72.6-72.6c19.4,0,37.6,7.5,51.3,21.3
		c13.7,13.7,21.3,31.9,21.3,51.3c0,19.4-7.5,37.6-21.3,51.3C282.9,537.6,264.7,545.2,245.3,545.2z"/>
	<path class="st21" d="M959,335.5c-63,0-114.3,51.3-114.3,114.3c0,63,51.3,114.3,114.3,114.3c63,0,114.3-51.3,114.3-114.3
		C1073.3,386.8,1022,335.5,959,335.5z M1054.4,449.8c0,52.6-42.8,95.4-95.4,95.4c-52.6,0-95.4-42.8-95.4-95.4
		c0.1-52.5,42.9-95.3,95.4-95.4c25.5,0,49.4,9.9,67.4,27.9C1044.5,400.4,1054.4,424.3,1054.4,449.8z"/>
	<path class="st21" d="M1353.2,208.2c-24.4,0-47.4,9.5-64.7,26.8c-17.3,17.3-26.8,40.2-26.8,64.7s9.5,47.4,26.8,64.7
		c17.3,17.3,40.2,26.8,64.7,26.8c50.4,0,91.5-41,91.5-91.5C1444.7,249.2,1403.6,208.2,1353.2,208.2z M1425.8,299.6
		c0,19.4-7.5,37.6-21.3,51.3c-13.7,13.7-31.9,21.3-51.3,21.3c-19.4,0-37.6-7.5-51.3-21.3c-13.7-13.7-21.3-31.9-21.3-51.3
		c0-40,32.6-72.5,72.6-72.6c19.4,0,37.6,7.5,51.3,21.3C1418.2,262,1425.8,280.2,1425.8,299.6z"/>
	<path class="st21" d="M302.1,220.2c0.8-40.3-14.2-78.5-42.2-107.6c-27.7-28.7-66.1-45.5-105.9-46.2v0l-3,0
		c-38.5,0-75.9,15-103.7,41.4V66.4H28.3v63.1c-37.8,52.7-37.8,123.2,0,175.9v235.5h18.9V327.1c28.2,26.7,64.8,41.4,103.9,41.4
		c0,0,0,0,0,0c39.3,0,76.5-15,104.8-42.3C284.9,298.2,301.4,260.6,302.1,220.2z M151.1,85.3c72.9,0,132.1,59.3,132.1,132.1
		c0,72.9-59.3,132.1-132.1,132.1c-40.3,0-79.1-18.9-103.9-50.6V135.9C72.1,104.2,110.8,85.3,151.1,85.3z M28.3,168.6v97.6
		c-6.2-15.5-9.4-32.1-9.4-48.8C19,200.8,22.2,184.1,28.3,168.6z"/>
	<path class="st21" d="M624.9,527.4c-39.8,5.1-71.4-5.4-96.6-31.9c-21.4-22.5-32.6-51.4-43.5-79.3c-4-10.3-8.1-20.8-12.7-31h27.4
		c42,0,76.2-34.2,76.2-76.3c0-42-34.2-76.2-76.2-76.2c0,0,0,0,0,0h-94.7v18.9h94.7c31.6,0,57.4,25.7,57.4,57.4s-25.7,57.4-57.4,57.4
		h-36.7c-7.2-12.9-15.8-25-27-35.7c-12-11.5-25.3-19.7-39.8-24.8V205.7h-18.9V301c-14-2.2-29.1-1.7-45,1.4l-2.8,0.5l3.6,18.5
		l2.8-0.5c14.8-2.9,28.6-3.1,41.3-0.7v220.5h18.9V326.2c9.6,4.2,18.5,10.3,26.7,18.1c7,6.7,12.9,14.1,18,22h-36v18.9h46.5
		c5.9,12,10.8,24.8,16,37.9c11.5,29.6,23.5,60.2,47.4,85.4c24.6,25.9,55.5,39.1,91.9,39.1v-2.8l0,2.8c6.9,0,14-0.5,20.8-1.4l2.8-0.4
		l-2.4-18.7L624.9,527.4z"/>
	<polygon class="st21" points="905.2,279.9 905.2,301.4 924.1,301.4 924.1,236.9 905.2,236.9 905.2,261 812.7,261 812.7,175.1
		967.8,175.1 967.8,156.2 793.8,156.2 793.8,261 590.7,261 590.7,279.9 703.3,279.9 703.3,540.9 722.1,540.9 722.1,279.9
		793.8,279.9 793.8,490.1 812.7,490.1 812.7,279.9 	"/>
	<path class="st21" d="M1211.2,178.1c6.8,0,12.4-5.6,12.4-12.4s-5.6-12.4-12.4-12.4c-6.8,0-12.4,5.6-12.4,12.4
		C1198.8,172.5,1204.4,178.1,1211.2,178.1z"/>
	<rect x="1201.8" y="214.6" class="st21" width="18.9" height="229.8"/>
	<polygon class="st21" points="1124.2,0 1105.3,0 1105.3,547.5 1356,547.5 1356,528.6 1124.2,528.6 	"/>
</g>
</svg>
